<?xml version="1.0" encoding="UTF-8"?>
<svg id="Layer_2" data-name="Layer 2" xmlns="http://www.w3.org/2000/svg" xmlns:xlink="http://www.w3.org/1999/xlink" viewBox="0 0 513.83 141.8">
  <defs>
    <style>
      .cls-1 {
        fill: url(#linear-gradient);
      }

      .cls-2 {
        fill: #fff;
      }
    </style>
    <linearGradient id="linear-gradient" x1="-108.48" y1="506.32" x2="109.32" y2="506.32" gradientTransform="translate(10.72 -427.35) rotate(-11.37)" gradientUnits="userSpaceOnUse">
      <stop offset=".23" stop-color="#74cdd3"/>
      <stop offset=".97" stop-color="#bdd72d"/>
    </linearGradient>
  </defs>
  <g id="Layer_1-2" data-name="Layer 1">
    <g>
      <path class="cls-2" d="M241.86,45.99h9.9c.38,3.7,2.87,5.44,7.18,5.44,3.7,0,6.2-1.28,6.2-4.08,0-1.81-1.21-2.95-3.78-3.48l-7.25-1.51c-8.24-1.89-11.18-6.27-11.18-11.49,0-7.63,6.57-12.01,16.09-12.01,10.5,0,16.02,5.14,16.17,13.6h-9.22c-.45-3.93-3.02-5.37-6.8-5.37s-5.52,1.36-5.52,3.48c0,1.96,1.44,3.25,4.08,3.78l7.4,1.59c6.2,1.36,11.33,4.23,11.33,11.18,0,8.77-8.08,12.54-17.61,12.54-10.5,0-16.93-4.61-17-13.68Z"/>
      <path class="cls-2" d="M278.28,39.19c0-14.66,9.3-20.33,19.72-20.33s18.66,5.29,18.66,20.17c0,1.44-.08,2.19-.23,3.02h-27.66c.6,6.57,4,9.22,9.44,9.22,5.06,0,7.25-2.04,8.16-5.21h9.75c-1.96,8.99-8.92,13.6-18.06,13.6-9.97,0-19.8-5.52-19.8-20.48ZM306.24,35.56c-.15-4.53-2.49-8.31-8.54-8.31-5.14,0-8.16,2.87-8.92,8.31h17.46Z"/>
      <path class="cls-2" d="M340.02,28.01c-4.61,0-8.24,2.64-8.24,8.61v22.29h-11.03V19.62h11.03v8.24h.45c.68-3.7,4.46-8.99,12.54-8.99,7.63,0,13.53,4.91,13.53,15.11v24.94h-11.03v-22.29c0-5.97-2.64-8.61-7.25-8.61Z"/>
      <path class="cls-2" d="M367.53,47.13v-18.97h-6.65v-8.54h6.65v-10.13h11.03v10.13h7.78v8.54h-7.78v17.38c0,3.02.91,5.06,4.99,5.06.83,0,1.51,0,3.1-.15v8.24c-1.74.45-3.85.76-6.05.76-7.86,0-13.07-3.55-13.07-12.32Z"/>
      <path class="cls-2" d="M389.82,8.97c0-3.47,2.87-6.12,6.05-6.12s6.05,2.65,6.05,6.12-2.87,6.05-6.05,6.05-6.05-2.64-6.05-6.05ZM390.35,19.62h11.03v39.29h-11.03V19.62Z"/>
      <path class="cls-2" d="M405.47,39.19c0-14.66,9.3-20.33,19.72-20.33s18.66,5.29,18.66,20.17c0,1.44-.08,2.19-.23,3.02h-27.66c.6,6.57,4,9.22,9.44,9.22,5.06,0,7.25-2.04,8.16-5.21h9.75c-1.96,8.99-8.92,13.6-18.06,13.6-9.97,0-19.8-5.52-19.8-20.48ZM433.43,35.56c-.15-4.53-2.49-8.31-8.54-8.31-5.14,0-8.16,2.87-8.92,8.31h17.46Z"/>
      <path class="cls-2" d="M467.2,28.01c-4.61,0-8.24,2.64-8.24,8.61v22.29h-11.03V19.62h11.03v8.24h.45c.68-3.7,4.46-8.99,12.54-8.99,7.63,0,13.53,4.91,13.53,15.11v24.94h-11.03v-22.29c0-5.97-2.64-8.61-7.25-8.61Z"/>
      <path class="cls-2" d="M494.71,47.13v-18.97h-6.65v-8.54h6.65v-10.13h11.03v10.13h7.78v8.54h-7.78v17.38c0,3.02.91,5.06,4.99,5.06.83,0,1.51,0,3.1-.15v8.24c-1.74.45-3.85.76-6.05.76-7.86,0-13.07-3.55-13.07-12.32Z"/>
    </g>
    <g>
      <path class="cls-2" d="M450.18,86.88c0-2.86,2.22-4.94,4.95-4.94s4.95,2.08,4.95,4.94-2.22,4.95-4.95,4.95-4.95-2.08-4.95-4.95ZM459.23,86.88c0-2.4-1.83-4.11-4.09-4.11s-4.11,1.71-4.11,4.11,1.83,4.12,4.11,4.12,4.09-1.71,4.09-4.12ZM453.13,84.37h2.5c1.19,0,1.9.64,1.89,1.65-.01.79-.43,1.35-1.19,1.55l1.22,1.82h-.96l-1.15-1.73h-1.4v1.73h-.9v-5.02ZM456.65,86c0-.51-.33-.9-1.11-.9h-1.51v1.83h1.51c.78,0,1.11-.39,1.11-.93Z"/>
      <path class="cls-2" d="M263.79,91.11c-4.5,0-8.04,2.58-8.04,8.41v21.76h-10.77v-38.36h10.77v8.04h.44c.67-3.62,4.35-8.78,12.25-8.78,7.45,0,13.21,4.79,13.21,14.75v24.34h-10.77v-21.76c0-5.83-2.58-8.41-7.08-8.41Z"/>
      <path class="cls-2" d="M285.63,102.11c0-13.94,9.59-19.92,19.25-19.92s19.25,5.98,19.25,19.92-9.59,19.92-19.25,19.92-19.25-5.98-19.25-19.92ZM314.03,102.11c0-7.6-3.98-10.99-9.15-10.99s-9.15,3.39-9.15,10.99,3.98,10.99,9.15,10.99,9.15-3.39,9.15-10.99Z"/>
      <path class="cls-2" d="M330.71,109.78v-18.52h-6.49v-8.34h6.49v-9.89h10.77v9.89h7.6v8.34h-7.6v16.97c0,2.95.89,4.94,4.87,4.94.81,0,1.47,0,3.02-.15v8.04c-1.7.44-3.76.74-5.9.74-7.67,0-12.76-3.47-12.76-12.03Z"/>
      <path class="cls-2" d="M352.47,72.52c0-3.39,2.8-5.98,5.9-5.98s5.9,2.58,5.9,5.98-2.8,5.9-5.9,5.9-5.9-2.58-5.9-5.9ZM352.98,82.92h10.77v38.36h-10.77v-38.36Z"/>
      <path class="cls-2" d="M367.74,102.11c0-13.94,9.59-19.92,19.25-19.92s19.25,5.98,19.25,19.92-9.59,19.92-19.25,19.92-19.25-5.98-19.25-19.92ZM396.14,102.11c0-7.6-3.98-10.99-9.15-10.99s-9.15,3.39-9.15,10.99,3.98,10.99,9.15,10.99,9.15-3.39,9.15-10.99Z"/>
      <path class="cls-2" d="M429.04,91.11c-4.5,0-8.04,2.58-8.04,8.41v21.76h-10.77v-38.36h10.77v8.04h.44c.67-3.62,4.35-8.78,12.25-8.78,7.45,0,13.21,4.79,13.21,14.75v24.34h-10.77v-21.76c0-5.83-2.58-8.41-7.08-8.41Z"/>
    </g>
    <path class="cls-1" d="M144.54,67.35c-9.58-6.37-22.51-3.76-28.88,5.82-.31.46-.57.94-.84,1.41-6.25,9.09-12.81,14.32-20.13,15.78h0c-7.29,1.45-15.32-.83-24.56-6.76-.43-.34-.87-.68-1.33-.98-.46-.31-.94-.57-1.41-.84-9.09-6.25-14.32-12.81-15.78-20.13h0c-1.45-7.29.84-15.33,6.77-24.56.34-.43.67-.86.98-1.32,6.37-9.58,3.76-22.51-5.82-28.88-9.58-6.37-22.51-3.76-28.87,5.82-6.37,9.58-3.76,22.51,5.82,28.88.46.31.94.57,1.41.84,9.09,6.25,14.32,12.81,15.78,20.13h0c1.45,7.29-.84,15.33-6.77,24.56-.34.43-.67.86-.98,1.33-3.18,4.79-4.12,10.42-3.07,15.64,1.05,5.23,4.1,10.05,8.89,13.23,4.79,3.18,10.42,4.12,15.64,3.07,5.23-1.05,10.05-4.1,13.23-8.89.31-.46.57-.94.84-1.41,6.25-9.09,12.81-14.32,20.13-15.78h0c7.29-1.45,15.33.83,24.56,6.76.43.34.86.67,1.32.98,9.58,6.37,22.51,3.76,28.88-5.82,6.37-9.58,3.76-22.51-5.82-28.88ZM188.84,95.73c-9.09-6.25-14.32-12.81-15.78-20.13h0c-1.45-7.29.84-15.33,6.77-24.56.34-.43.67-.86.98-1.33,3.18-4.79,4.12-10.42,3.07-15.64-1.05-5.23-4.1-10.05-8.89-13.23-4.75-3.16-10.33-4.1-15.52-3.09-5.27,1.03-10.15,4.08-13.36,8.91-.31.46-.57.94-.84,1.41-6.25,9.09-12.81,14.32-20.13,15.78h0c-7.29,1.45-15.33-.83-24.56-6.76-.43-.34-.86-.67-1.32-.98-9.58-6.37-22.51-3.76-28.88,5.82-6.37,9.58-3.76,22.51,5.82,28.88,9.58,6.37,22.51,3.76,28.88-5.82.31-.46.57-.94.84-1.41,6.25-9.09,12.81-14.32,20.13-15.78h0c7.29-1.45,15.32.83,24.56,6.76.43.34.87.67,1.33.98.46.31.94.57,1.41.84,9.09,6.25,14.32,12.81,15.78,20.13h0c1.45,7.29-.84,15.33-6.77,24.56-.34.43-.67.86-.98,1.32-6.37,9.58-3.76,22.51,5.82,28.88,9.58,6.37,22.51,3.76,28.88-5.82,6.37-9.58,3.76-22.51-5.82-28.88-.46-.31-.94-.57-1.41-.84ZM122.27,29.05c7.94-1.6,13.09-9.33,11.49-17.27S124.43-1.31,116.49.29s-13.09,9.33-11.49,17.27,9.33,13.09,17.27,11.49ZM99.31,112.75c-7.94,1.6-13.09,9.33-11.49,17.27s9.33,13.09,17.27,11.49,13.09-9.33,11.49-17.27c-1.6-7.94-9.33-13.09-17.27-11.49ZM204.14,54.38c-7.94,1.6-13.09,9.33-11.49,17.27s9.33,13.09,17.27,11.49c7.94-1.6,13.09-9.33,11.49-17.27s-9.33-13.09-17.27-11.49ZM11.78,53.76c-7.94,1.6-13.09,9.33-11.49,17.27,1.6,7.94,9.33,13.09,17.27,11.49s13.09-9.33,11.49-17.27c-1.6-7.94-9.33-13.09-17.27-11.49Z"/>
  </g>
</svg>